<svg width="1920" height="1080" viewBox="0 0 1920 1080" fill="none" xmlns="http://www.w3.org/2000/svg">
<path d="M1961 528.5L-40.9999 528.5M1961 528.5C1961 -24.6132 1512.84 -473 960 -473M1961 528.5C1961 1081.61 1512.84 1530 960 1530M1961 528.5L1961 1530L960 1530M1961 528.5L1961 -473L960 -473M-40.9999 528.5C-40.9999 1081.61 407.164 1530 960 1530M-40.9999 528.5C-40.9999 -24.6132 407.164 -473 960 -473M-40.9999 528.5L-40.9998 -473L960 -473M-40.9999 528.5L-41 1530L960 1530M960 -473L960 1530M1961 862.333L-40.9999 862.333M1961 194.667L960 194.667L-40.9999 194.667M1961 27.75L-40.9999 27.7499M1961 -306.083L-40.9999 -306.083M459.5 -473L459.5 528.5L459.5 1530M125.834 -473L125.834 1530M1460.5 -473L1460.5 1530M1794.17 -473L1794.17 1530M125.834 -306.083L1794.17 1363.08M125.834 1363.08L1794.17 -306.083M1877.58 1530C1831.51 1530 1794.17 1492.64 1794.17 1446.54C1794.17 1400.45 1831.51 1363.08 1877.58 1363.08C1923.65 1363.08 1961 1400.45 1961 1446.54C1961 1492.64 1923.65 1530 1877.58 1530ZM42.4167 1530C-3.65342 1530 -41 1492.63 -41 1446.54C-41 1400.45 -3.65341 1363.08 42.4167 1363.08C88.4867 1363.08 125.834 1400.45 125.834 1446.54C125.834 1492.63 88.4867 1530 42.4167 1530ZM1877.58 -306.083C1831.51 -306.083 1794.17 -343.449 1794.17 -389.542C1794.17 -435.635 1831.51 -473 1877.58 -473C1923.65 -473 1961 -435.635 1961 -389.542C1961 -343.449 1923.65 -306.083 1877.58 -306.083ZM42.4168 -306.083C-3.65332 -306.083 -40.9999 -343.449 -40.9999 -389.542C-40.9998 -435.635 -3.65331 -473 42.4168 -473C88.4868 -473 125.834 -435.635 125.834 -389.542C125.834 -343.449 88.4868 -306.083 42.4168 -306.083Z" stroke="white" stroke-opacity="0.11"/>
</svg>

